<mxfile host="Electron" agent="Mozilla/5.0 (Windows NT 10.0; Win64; x64) AppleWebKit/537.36 (KHTML, like Gecko) draw.io/28.1.2 Chrome/138.0.7204.243 Electron/37.4.0 Safari/537.36" version="28.1.2">
  <diagram name="Page-1" id="y-EFgpXdh5W5BjANM_QL">
    <mxGraphModel dx="1942" dy="2472" grid="1" gridSize="10" guides="1" tooltips="1" connect="1" arrows="1" fold="1" page="1" pageScale="1" pageWidth="850" pageHeight="1100" math="0" shadow="0">
      <root>
        <mxCell id="0" />
        <mxCell id="1" parent="0" />
        <mxCell id="o1oWArqABhY-PskXTKNS-1" value="&lt;font style=&quot;color: rgb(0, 0, 0);&quot;&gt;gold.dim_customers&lt;/font&gt;" style="shape=table;startSize=50;container=1;collapsible=1;childLayout=tableLayout;fixedRows=1;rowLines=0;fontStyle=1;align=center;resizeLast=1;html=1;rounded=1;fillColor=#fff2cc;strokeColor=#d6b656;gradientColor=#ffd966;fontSize=20;" vertex="1" parent="1">
          <mxGeometry x="-820" y="320" width="240" height="563" as="geometry" />
        </mxCell>
        <mxCell id="o1oWArqABhY-PskXTKNS-2" value="" style="shape=tableRow;horizontal=0;startSize=0;swimlaneHead=0;swimlaneBody=0;fillColor=none;collapsible=0;dropTarget=0;points=[[0,0.5],[1,0.5]];portConstraint=eastwest;top=0;left=0;right=0;bottom=1;fontSize=20;" vertex="1" parent="o1oWArqABhY-PskXTKNS-1">
          <mxGeometry y="50" width="240" height="57" as="geometry" />
        </mxCell>
        <mxCell id="o1oWArqABhY-PskXTKNS-3" value="PK" style="shape=partialRectangle;connectable=0;fillColor=none;top=0;left=0;bottom=0;right=0;fontStyle=1;overflow=hidden;whiteSpace=wrap;html=1;fontSize=20;" vertex="1" parent="o1oWArqABhY-PskXTKNS-2">
          <mxGeometry width="30" height="57" as="geometry">
            <mxRectangle width="30" height="57" as="alternateBounds" />
          </mxGeometry>
        </mxCell>
        <mxCell id="o1oWArqABhY-PskXTKNS-4" value="customer_key" style="shape=partialRectangle;connectable=0;fillColor=none;top=0;left=0;bottom=0;right=0;align=left;spacingLeft=6;fontStyle=5;overflow=hidden;whiteSpace=wrap;html=1;fontSize=20;" vertex="1" parent="o1oWArqABhY-PskXTKNS-2">
          <mxGeometry x="30" width="210" height="57" as="geometry">
            <mxRectangle width="210" height="57" as="alternateBounds" />
          </mxGeometry>
        </mxCell>
        <mxCell id="o1oWArqABhY-PskXTKNS-5" value="" style="shape=tableRow;horizontal=0;startSize=0;swimlaneHead=0;swimlaneBody=0;fillColor=none;collapsible=0;dropTarget=0;points=[[0,0.5],[1,0.5]];portConstraint=eastwest;top=0;left=0;right=0;bottom=0;fontSize=20;" vertex="1" parent="o1oWArqABhY-PskXTKNS-1">
          <mxGeometry y="107" width="240" height="57" as="geometry" />
        </mxCell>
        <mxCell id="o1oWArqABhY-PskXTKNS-6" value="" style="shape=partialRectangle;connectable=0;fillColor=none;top=0;left=0;bottom=0;right=0;editable=1;overflow=hidden;whiteSpace=wrap;html=1;fontSize=20;" vertex="1" parent="o1oWArqABhY-PskXTKNS-5">
          <mxGeometry width="30" height="57" as="geometry">
            <mxRectangle width="30" height="57" as="alternateBounds" />
          </mxGeometry>
        </mxCell>
        <mxCell id="o1oWArqABhY-PskXTKNS-7" value="customer_id" style="shape=partialRectangle;connectable=0;fillColor=none;top=0;left=0;bottom=0;right=0;align=left;spacingLeft=6;overflow=hidden;whiteSpace=wrap;html=1;fontSize=20;" vertex="1" parent="o1oWArqABhY-PskXTKNS-5">
          <mxGeometry x="30" width="210" height="57" as="geometry">
            <mxRectangle width="210" height="57" as="alternateBounds" />
          </mxGeometry>
        </mxCell>
        <mxCell id="o1oWArqABhY-PskXTKNS-8" value="" style="shape=tableRow;horizontal=0;startSize=0;swimlaneHead=0;swimlaneBody=0;fillColor=none;collapsible=0;dropTarget=0;points=[[0,0.5],[1,0.5]];portConstraint=eastwest;top=0;left=0;right=0;bottom=0;fontSize=20;" vertex="1" parent="o1oWArqABhY-PskXTKNS-1">
          <mxGeometry y="164" width="240" height="57" as="geometry" />
        </mxCell>
        <mxCell id="o1oWArqABhY-PskXTKNS-9" value="" style="shape=partialRectangle;connectable=0;fillColor=none;top=0;left=0;bottom=0;right=0;editable=1;overflow=hidden;whiteSpace=wrap;html=1;fontSize=20;" vertex="1" parent="o1oWArqABhY-PskXTKNS-8">
          <mxGeometry width="30" height="57" as="geometry">
            <mxRectangle width="30" height="57" as="alternateBounds" />
          </mxGeometry>
        </mxCell>
        <mxCell id="o1oWArqABhY-PskXTKNS-10" value="customer_number" style="shape=partialRectangle;connectable=0;fillColor=none;top=0;left=0;bottom=0;right=0;align=left;spacingLeft=6;overflow=hidden;whiteSpace=wrap;html=1;fontSize=20;" vertex="1" parent="o1oWArqABhY-PskXTKNS-8">
          <mxGeometry x="30" width="210" height="57" as="geometry">
            <mxRectangle width="210" height="57" as="alternateBounds" />
          </mxGeometry>
        </mxCell>
        <mxCell id="o1oWArqABhY-PskXTKNS-11" value="" style="shape=tableRow;horizontal=0;startSize=0;swimlaneHead=0;swimlaneBody=0;fillColor=none;collapsible=0;dropTarget=0;points=[[0,0.5],[1,0.5]];portConstraint=eastwest;top=0;left=0;right=0;bottom=0;fontSize=20;" vertex="1" parent="o1oWArqABhY-PskXTKNS-1">
          <mxGeometry y="221" width="240" height="57" as="geometry" />
        </mxCell>
        <mxCell id="o1oWArqABhY-PskXTKNS-12" value="" style="shape=partialRectangle;connectable=0;fillColor=none;top=0;left=0;bottom=0;right=0;editable=1;overflow=hidden;whiteSpace=wrap;html=1;fontSize=20;" vertex="1" parent="o1oWArqABhY-PskXTKNS-11">
          <mxGeometry width="30" height="57" as="geometry">
            <mxRectangle width="30" height="57" as="alternateBounds" />
          </mxGeometry>
        </mxCell>
        <mxCell id="o1oWArqABhY-PskXTKNS-13" value="first_name" style="shape=partialRectangle;connectable=0;fillColor=none;top=0;left=0;bottom=0;right=0;align=left;spacingLeft=6;overflow=hidden;whiteSpace=wrap;html=1;fontSize=20;" vertex="1" parent="o1oWArqABhY-PskXTKNS-11">
          <mxGeometry x="30" width="210" height="57" as="geometry">
            <mxRectangle width="210" height="57" as="alternateBounds" />
          </mxGeometry>
        </mxCell>
        <mxCell id="o1oWArqABhY-PskXTKNS-14" value="" style="shape=tableRow;horizontal=0;startSize=0;swimlaneHead=0;swimlaneBody=0;fillColor=none;collapsible=0;dropTarget=0;points=[[0,0.5],[1,0.5]];portConstraint=eastwest;top=0;left=0;right=0;bottom=0;fontSize=20;" vertex="1" parent="o1oWArqABhY-PskXTKNS-1">
          <mxGeometry y="278" width="240" height="57" as="geometry" />
        </mxCell>
        <mxCell id="o1oWArqABhY-PskXTKNS-15" value="" style="shape=partialRectangle;connectable=0;fillColor=none;top=0;left=0;bottom=0;right=0;editable=1;overflow=hidden;whiteSpace=wrap;html=1;fontSize=20;" vertex="1" parent="o1oWArqABhY-PskXTKNS-14">
          <mxGeometry width="30" height="57" as="geometry">
            <mxRectangle width="30" height="57" as="alternateBounds" />
          </mxGeometry>
        </mxCell>
        <mxCell id="o1oWArqABhY-PskXTKNS-16" value="last_name" style="shape=partialRectangle;connectable=0;fillColor=none;top=0;left=0;bottom=0;right=0;align=left;spacingLeft=6;overflow=hidden;whiteSpace=wrap;html=1;fontSize=20;" vertex="1" parent="o1oWArqABhY-PskXTKNS-14">
          <mxGeometry x="30" width="210" height="57" as="geometry">
            <mxRectangle width="210" height="57" as="alternateBounds" />
          </mxGeometry>
        </mxCell>
        <mxCell id="o1oWArqABhY-PskXTKNS-17" value="" style="shape=tableRow;horizontal=0;startSize=0;swimlaneHead=0;swimlaneBody=0;fillColor=none;collapsible=0;dropTarget=0;points=[[0,0.5],[1,0.5]];portConstraint=eastwest;top=0;left=0;right=0;bottom=0;fontSize=20;" vertex="1" parent="o1oWArqABhY-PskXTKNS-1">
          <mxGeometry y="335" width="240" height="57" as="geometry" />
        </mxCell>
        <mxCell id="o1oWArqABhY-PskXTKNS-18" value="" style="shape=partialRectangle;connectable=0;fillColor=none;top=0;left=0;bottom=0;right=0;editable=1;overflow=hidden;whiteSpace=wrap;html=1;fontSize=20;" vertex="1" parent="o1oWArqABhY-PskXTKNS-17">
          <mxGeometry width="30" height="57" as="geometry">
            <mxRectangle width="30" height="57" as="alternateBounds" />
          </mxGeometry>
        </mxCell>
        <mxCell id="o1oWArqABhY-PskXTKNS-19" value="country" style="shape=partialRectangle;connectable=0;fillColor=none;top=0;left=0;bottom=0;right=0;align=left;spacingLeft=6;overflow=hidden;whiteSpace=wrap;html=1;fontSize=20;" vertex="1" parent="o1oWArqABhY-PskXTKNS-17">
          <mxGeometry x="30" width="210" height="57" as="geometry">
            <mxRectangle width="210" height="57" as="alternateBounds" />
          </mxGeometry>
        </mxCell>
        <mxCell id="o1oWArqABhY-PskXTKNS-20" value="" style="shape=tableRow;horizontal=0;startSize=0;swimlaneHead=0;swimlaneBody=0;fillColor=none;collapsible=0;dropTarget=0;points=[[0,0.5],[1,0.5]];portConstraint=eastwest;top=0;left=0;right=0;bottom=0;fontSize=20;" vertex="1" parent="o1oWArqABhY-PskXTKNS-1">
          <mxGeometry y="392" width="240" height="57" as="geometry" />
        </mxCell>
        <mxCell id="o1oWArqABhY-PskXTKNS-21" value="" style="shape=partialRectangle;connectable=0;fillColor=none;top=0;left=0;bottom=0;right=0;editable=1;overflow=hidden;whiteSpace=wrap;html=1;fontSize=20;" vertex="1" parent="o1oWArqABhY-PskXTKNS-20">
          <mxGeometry width="30" height="57" as="geometry">
            <mxRectangle width="30" height="57" as="alternateBounds" />
          </mxGeometry>
        </mxCell>
        <mxCell id="o1oWArqABhY-PskXTKNS-22" value="marital_status" style="shape=partialRectangle;connectable=0;fillColor=none;top=0;left=0;bottom=0;right=0;align=left;spacingLeft=6;overflow=hidden;whiteSpace=wrap;html=1;fontSize=20;" vertex="1" parent="o1oWArqABhY-PskXTKNS-20">
          <mxGeometry x="30" width="210" height="57" as="geometry">
            <mxRectangle width="210" height="57" as="alternateBounds" />
          </mxGeometry>
        </mxCell>
        <mxCell id="o1oWArqABhY-PskXTKNS-23" value="" style="shape=tableRow;horizontal=0;startSize=0;swimlaneHead=0;swimlaneBody=0;fillColor=none;collapsible=0;dropTarget=0;points=[[0,0.5],[1,0.5]];portConstraint=eastwest;top=0;left=0;right=0;bottom=0;fontSize=20;" vertex="1" parent="o1oWArqABhY-PskXTKNS-1">
          <mxGeometry y="449" width="240" height="57" as="geometry" />
        </mxCell>
        <mxCell id="o1oWArqABhY-PskXTKNS-24" value="" style="shape=partialRectangle;connectable=0;fillColor=none;top=0;left=0;bottom=0;right=0;editable=1;overflow=hidden;whiteSpace=wrap;html=1;fontSize=20;" vertex="1" parent="o1oWArqABhY-PskXTKNS-23">
          <mxGeometry width="30" height="57" as="geometry">
            <mxRectangle width="30" height="57" as="alternateBounds" />
          </mxGeometry>
        </mxCell>
        <mxCell id="o1oWArqABhY-PskXTKNS-25" value="gender" style="shape=partialRectangle;connectable=0;fillColor=none;top=0;left=0;bottom=0;right=0;align=left;spacingLeft=6;overflow=hidden;whiteSpace=wrap;html=1;fontSize=20;" vertex="1" parent="o1oWArqABhY-PskXTKNS-23">
          <mxGeometry x="30" width="210" height="57" as="geometry">
            <mxRectangle width="210" height="57" as="alternateBounds" />
          </mxGeometry>
        </mxCell>
        <mxCell id="o1oWArqABhY-PskXTKNS-26" value="" style="shape=tableRow;horizontal=0;startSize=0;swimlaneHead=0;swimlaneBody=0;fillColor=none;collapsible=0;dropTarget=0;points=[[0,0.5],[1,0.5]];portConstraint=eastwest;top=0;left=0;right=0;bottom=0;fontSize=20;" vertex="1" parent="o1oWArqABhY-PskXTKNS-1">
          <mxGeometry y="506" width="240" height="57" as="geometry" />
        </mxCell>
        <mxCell id="o1oWArqABhY-PskXTKNS-27" value="" style="shape=partialRectangle;connectable=0;fillColor=none;top=0;left=0;bottom=0;right=0;editable=1;overflow=hidden;whiteSpace=wrap;html=1;fontSize=20;" vertex="1" parent="o1oWArqABhY-PskXTKNS-26">
          <mxGeometry width="30" height="57" as="geometry">
            <mxRectangle width="30" height="57" as="alternateBounds" />
          </mxGeometry>
        </mxCell>
        <mxCell id="o1oWArqABhY-PskXTKNS-28" value="birthdate" style="shape=partialRectangle;connectable=0;fillColor=none;top=0;left=0;bottom=0;right=0;align=left;spacingLeft=6;overflow=hidden;whiteSpace=wrap;html=1;fontSize=20;" vertex="1" parent="o1oWArqABhY-PskXTKNS-26">
          <mxGeometry x="30" width="210" height="57" as="geometry">
            <mxRectangle width="210" height="57" as="alternateBounds" />
          </mxGeometry>
        </mxCell>
        <mxCell id="o1oWArqABhY-PskXTKNS-89" value="&lt;font style=&quot;color: rgb(0, 0, 0);&quot;&gt;gold.dim_products&lt;/font&gt;" style="shape=table;startSize=50;container=1;collapsible=1;childLayout=tableLayout;fixedRows=1;rowLines=0;fontStyle=1;align=center;resizeLast=1;html=1;rounded=1;fillColor=#fff2cc;strokeColor=#d6b656;gradientColor=#ffd966;fontSize=20;" vertex="1" parent="1">
          <mxGeometry x="-40" y="263" width="240" height="620" as="geometry" />
        </mxCell>
        <mxCell id="o1oWArqABhY-PskXTKNS-90" value="" style="shape=tableRow;horizontal=0;startSize=0;swimlaneHead=0;swimlaneBody=0;fillColor=none;collapsible=0;dropTarget=0;points=[[0,0.5],[1,0.5]];portConstraint=eastwest;top=0;left=0;right=0;bottom=1;fontSize=20;" vertex="1" parent="o1oWArqABhY-PskXTKNS-89">
          <mxGeometry y="50" width="240" height="57" as="geometry" />
        </mxCell>
        <mxCell id="o1oWArqABhY-PskXTKNS-91" value="PK" style="shape=partialRectangle;connectable=0;fillColor=none;top=0;left=0;bottom=0;right=0;fontStyle=1;overflow=hidden;whiteSpace=wrap;html=1;fontSize=20;" vertex="1" parent="o1oWArqABhY-PskXTKNS-90">
          <mxGeometry width="30" height="57" as="geometry">
            <mxRectangle width="30" height="57" as="alternateBounds" />
          </mxGeometry>
        </mxCell>
        <mxCell id="o1oWArqABhY-PskXTKNS-92" value="product_key" style="shape=partialRectangle;connectable=0;fillColor=none;top=0;left=0;bottom=0;right=0;align=left;spacingLeft=6;fontStyle=5;overflow=hidden;whiteSpace=wrap;html=1;fontSize=20;" vertex="1" parent="o1oWArqABhY-PskXTKNS-90">
          <mxGeometry x="30" width="210" height="57" as="geometry">
            <mxRectangle width="210" height="57" as="alternateBounds" />
          </mxGeometry>
        </mxCell>
        <mxCell id="o1oWArqABhY-PskXTKNS-93" value="" style="shape=tableRow;horizontal=0;startSize=0;swimlaneHead=0;swimlaneBody=0;fillColor=none;collapsible=0;dropTarget=0;points=[[0,0.5],[1,0.5]];portConstraint=eastwest;top=0;left=0;right=0;bottom=0;fontSize=20;" vertex="1" parent="o1oWArqABhY-PskXTKNS-89">
          <mxGeometry y="107" width="240" height="57" as="geometry" />
        </mxCell>
        <mxCell id="o1oWArqABhY-PskXTKNS-94" value="" style="shape=partialRectangle;connectable=0;fillColor=none;top=0;left=0;bottom=0;right=0;editable=1;overflow=hidden;whiteSpace=wrap;html=1;fontSize=20;" vertex="1" parent="o1oWArqABhY-PskXTKNS-93">
          <mxGeometry width="30" height="57" as="geometry">
            <mxRectangle width="30" height="57" as="alternateBounds" />
          </mxGeometry>
        </mxCell>
        <mxCell id="o1oWArqABhY-PskXTKNS-95" value="&lt;span style=&quot;font-weight: 700; text-decoration-line: underline;&quot;&gt;product&lt;/span&gt;_id" style="shape=partialRectangle;connectable=0;fillColor=none;top=0;left=0;bottom=0;right=0;align=left;spacingLeft=6;overflow=hidden;whiteSpace=wrap;html=1;fontSize=20;" vertex="1" parent="o1oWArqABhY-PskXTKNS-93">
          <mxGeometry x="30" width="210" height="57" as="geometry">
            <mxRectangle width="210" height="57" as="alternateBounds" />
          </mxGeometry>
        </mxCell>
        <mxCell id="o1oWArqABhY-PskXTKNS-96" value="" style="shape=tableRow;horizontal=0;startSize=0;swimlaneHead=0;swimlaneBody=0;fillColor=none;collapsible=0;dropTarget=0;points=[[0,0.5],[1,0.5]];portConstraint=eastwest;top=0;left=0;right=0;bottom=0;fontSize=20;" vertex="1" parent="o1oWArqABhY-PskXTKNS-89">
          <mxGeometry y="164" width="240" height="57" as="geometry" />
        </mxCell>
        <mxCell id="o1oWArqABhY-PskXTKNS-97" value="" style="shape=partialRectangle;connectable=0;fillColor=none;top=0;left=0;bottom=0;right=0;editable=1;overflow=hidden;whiteSpace=wrap;html=1;fontSize=20;" vertex="1" parent="o1oWArqABhY-PskXTKNS-96">
          <mxGeometry width="30" height="57" as="geometry">
            <mxRectangle width="30" height="57" as="alternateBounds" />
          </mxGeometry>
        </mxCell>
        <mxCell id="o1oWArqABhY-PskXTKNS-98" value="&lt;span style=&quot;font-weight: 700; text-decoration-line: underline;&quot;&gt;product&lt;/span&gt;_number" style="shape=partialRectangle;connectable=0;fillColor=none;top=0;left=0;bottom=0;right=0;align=left;spacingLeft=6;overflow=hidden;whiteSpace=wrap;html=1;fontSize=20;" vertex="1" parent="o1oWArqABhY-PskXTKNS-96">
          <mxGeometry x="30" width="210" height="57" as="geometry">
            <mxRectangle width="210" height="57" as="alternateBounds" />
          </mxGeometry>
        </mxCell>
        <mxCell id="o1oWArqABhY-PskXTKNS-99" value="" style="shape=tableRow;horizontal=0;startSize=0;swimlaneHead=0;swimlaneBody=0;fillColor=none;collapsible=0;dropTarget=0;points=[[0,0.5],[1,0.5]];portConstraint=eastwest;top=0;left=0;right=0;bottom=0;fontSize=20;" vertex="1" parent="o1oWArqABhY-PskXTKNS-89">
          <mxGeometry y="221" width="240" height="57" as="geometry" />
        </mxCell>
        <mxCell id="o1oWArqABhY-PskXTKNS-100" value="" style="shape=partialRectangle;connectable=0;fillColor=none;top=0;left=0;bottom=0;right=0;editable=1;overflow=hidden;whiteSpace=wrap;html=1;fontSize=20;" vertex="1" parent="o1oWArqABhY-PskXTKNS-99">
          <mxGeometry width="30" height="57" as="geometry">
            <mxRectangle width="30" height="57" as="alternateBounds" />
          </mxGeometry>
        </mxCell>
        <mxCell id="o1oWArqABhY-PskXTKNS-101" value="product_name" style="shape=partialRectangle;connectable=0;fillColor=none;top=0;left=0;bottom=0;right=0;align=left;spacingLeft=6;overflow=hidden;whiteSpace=wrap;html=1;fontSize=20;" vertex="1" parent="o1oWArqABhY-PskXTKNS-99">
          <mxGeometry x="30" width="210" height="57" as="geometry">
            <mxRectangle width="210" height="57" as="alternateBounds" />
          </mxGeometry>
        </mxCell>
        <mxCell id="o1oWArqABhY-PskXTKNS-102" value="" style="shape=tableRow;horizontal=0;startSize=0;swimlaneHead=0;swimlaneBody=0;fillColor=none;collapsible=0;dropTarget=0;points=[[0,0.5],[1,0.5]];portConstraint=eastwest;top=0;left=0;right=0;bottom=0;fontSize=20;" vertex="1" parent="o1oWArqABhY-PskXTKNS-89">
          <mxGeometry y="278" width="240" height="57" as="geometry" />
        </mxCell>
        <mxCell id="o1oWArqABhY-PskXTKNS-103" value="" style="shape=partialRectangle;connectable=0;fillColor=none;top=0;left=0;bottom=0;right=0;editable=1;overflow=hidden;whiteSpace=wrap;html=1;fontSize=20;" vertex="1" parent="o1oWArqABhY-PskXTKNS-102">
          <mxGeometry width="30" height="57" as="geometry">
            <mxRectangle width="30" height="57" as="alternateBounds" />
          </mxGeometry>
        </mxCell>
        <mxCell id="o1oWArqABhY-PskXTKNS-104" value="category_id" style="shape=partialRectangle;connectable=0;fillColor=none;top=0;left=0;bottom=0;right=0;align=left;spacingLeft=6;overflow=hidden;whiteSpace=wrap;html=1;fontSize=20;" vertex="1" parent="o1oWArqABhY-PskXTKNS-102">
          <mxGeometry x="30" width="210" height="57" as="geometry">
            <mxRectangle width="210" height="57" as="alternateBounds" />
          </mxGeometry>
        </mxCell>
        <mxCell id="o1oWArqABhY-PskXTKNS-105" value="" style="shape=tableRow;horizontal=0;startSize=0;swimlaneHead=0;swimlaneBody=0;fillColor=none;collapsible=0;dropTarget=0;points=[[0,0.5],[1,0.5]];portConstraint=eastwest;top=0;left=0;right=0;bottom=0;fontSize=20;" vertex="1" parent="o1oWArqABhY-PskXTKNS-89">
          <mxGeometry y="335" width="240" height="57" as="geometry" />
        </mxCell>
        <mxCell id="o1oWArqABhY-PskXTKNS-106" value="" style="shape=partialRectangle;connectable=0;fillColor=none;top=0;left=0;bottom=0;right=0;editable=1;overflow=hidden;whiteSpace=wrap;html=1;fontSize=20;" vertex="1" parent="o1oWArqABhY-PskXTKNS-105">
          <mxGeometry width="30" height="57" as="geometry">
            <mxRectangle width="30" height="57" as="alternateBounds" />
          </mxGeometry>
        </mxCell>
        <mxCell id="o1oWArqABhY-PskXTKNS-107" value="category" style="shape=partialRectangle;connectable=0;fillColor=none;top=0;left=0;bottom=0;right=0;align=left;spacingLeft=6;overflow=hidden;whiteSpace=wrap;html=1;fontSize=20;" vertex="1" parent="o1oWArqABhY-PskXTKNS-105">
          <mxGeometry x="30" width="210" height="57" as="geometry">
            <mxRectangle width="210" height="57" as="alternateBounds" />
          </mxGeometry>
        </mxCell>
        <mxCell id="o1oWArqABhY-PskXTKNS-108" value="" style="shape=tableRow;horizontal=0;startSize=0;swimlaneHead=0;swimlaneBody=0;fillColor=none;collapsible=0;dropTarget=0;points=[[0,0.5],[1,0.5]];portConstraint=eastwest;top=0;left=0;right=0;bottom=0;fontSize=20;" vertex="1" parent="o1oWArqABhY-PskXTKNS-89">
          <mxGeometry y="392" width="240" height="57" as="geometry" />
        </mxCell>
        <mxCell id="o1oWArqABhY-PskXTKNS-109" value="" style="shape=partialRectangle;connectable=0;fillColor=none;top=0;left=0;bottom=0;right=0;editable=1;overflow=hidden;whiteSpace=wrap;html=1;fontSize=20;" vertex="1" parent="o1oWArqABhY-PskXTKNS-108">
          <mxGeometry width="30" height="57" as="geometry">
            <mxRectangle width="30" height="57" as="alternateBounds" />
          </mxGeometry>
        </mxCell>
        <mxCell id="o1oWArqABhY-PskXTKNS-110" value="subcategory" style="shape=partialRectangle;connectable=0;fillColor=none;top=0;left=0;bottom=0;right=0;align=left;spacingLeft=6;overflow=hidden;whiteSpace=wrap;html=1;fontSize=20;" vertex="1" parent="o1oWArqABhY-PskXTKNS-108">
          <mxGeometry x="30" width="210" height="57" as="geometry">
            <mxRectangle width="210" height="57" as="alternateBounds" />
          </mxGeometry>
        </mxCell>
        <mxCell id="o1oWArqABhY-PskXTKNS-111" value="" style="shape=tableRow;horizontal=0;startSize=0;swimlaneHead=0;swimlaneBody=0;fillColor=none;collapsible=0;dropTarget=0;points=[[0,0.5],[1,0.5]];portConstraint=eastwest;top=0;left=0;right=0;bottom=0;fontSize=20;" vertex="1" parent="o1oWArqABhY-PskXTKNS-89">
          <mxGeometry y="449" width="240" height="57" as="geometry" />
        </mxCell>
        <mxCell id="o1oWArqABhY-PskXTKNS-112" value="" style="shape=partialRectangle;connectable=0;fillColor=none;top=0;left=0;bottom=0;right=0;editable=1;overflow=hidden;whiteSpace=wrap;html=1;fontSize=20;" vertex="1" parent="o1oWArqABhY-PskXTKNS-111">
          <mxGeometry width="30" height="57" as="geometry">
            <mxRectangle width="30" height="57" as="alternateBounds" />
          </mxGeometry>
        </mxCell>
        <mxCell id="o1oWArqABhY-PskXTKNS-113" value="cost" style="shape=partialRectangle;connectable=0;fillColor=none;top=0;left=0;bottom=0;right=0;align=left;spacingLeft=6;overflow=hidden;whiteSpace=wrap;html=1;fontSize=20;" vertex="1" parent="o1oWArqABhY-PskXTKNS-111">
          <mxGeometry x="30" width="210" height="57" as="geometry">
            <mxRectangle width="210" height="57" as="alternateBounds" />
          </mxGeometry>
        </mxCell>
        <mxCell id="o1oWArqABhY-PskXTKNS-114" value="" style="shape=tableRow;horizontal=0;startSize=0;swimlaneHead=0;swimlaneBody=0;fillColor=none;collapsible=0;dropTarget=0;points=[[0,0.5],[1,0.5]];portConstraint=eastwest;top=0;left=0;right=0;bottom=0;fontSize=20;" vertex="1" parent="o1oWArqABhY-PskXTKNS-89">
          <mxGeometry y="506" width="240" height="57" as="geometry" />
        </mxCell>
        <mxCell id="o1oWArqABhY-PskXTKNS-115" value="" style="shape=partialRectangle;connectable=0;fillColor=none;top=0;left=0;bottom=0;right=0;editable=1;overflow=hidden;whiteSpace=wrap;html=1;fontSize=20;" vertex="1" parent="o1oWArqABhY-PskXTKNS-114">
          <mxGeometry width="30" height="57" as="geometry">
            <mxRectangle width="30" height="57" as="alternateBounds" />
          </mxGeometry>
        </mxCell>
        <mxCell id="o1oWArqABhY-PskXTKNS-116" value="product_line" style="shape=partialRectangle;connectable=0;fillColor=none;top=0;left=0;bottom=0;right=0;align=left;spacingLeft=6;overflow=hidden;whiteSpace=wrap;html=1;fontSize=20;" vertex="1" parent="o1oWArqABhY-PskXTKNS-114">
          <mxGeometry x="30" width="210" height="57" as="geometry">
            <mxRectangle width="210" height="57" as="alternateBounds" />
          </mxGeometry>
        </mxCell>
        <mxCell id="o1oWArqABhY-PskXTKNS-173" value="" style="shape=tableRow;horizontal=0;startSize=0;swimlaneHead=0;swimlaneBody=0;fillColor=none;collapsible=0;dropTarget=0;points=[[0,0.5],[1,0.5]];portConstraint=eastwest;top=0;left=0;right=0;bottom=0;fontSize=20;" vertex="1" parent="o1oWArqABhY-PskXTKNS-89">
          <mxGeometry y="563" width="240" height="57" as="geometry" />
        </mxCell>
        <mxCell id="o1oWArqABhY-PskXTKNS-174" value="" style="shape=partialRectangle;connectable=0;fillColor=none;top=0;left=0;bottom=0;right=0;editable=1;overflow=hidden;whiteSpace=wrap;html=1;fontSize=20;" vertex="1" parent="o1oWArqABhY-PskXTKNS-173">
          <mxGeometry width="30" height="57" as="geometry">
            <mxRectangle width="30" height="57" as="alternateBounds" />
          </mxGeometry>
        </mxCell>
        <mxCell id="o1oWArqABhY-PskXTKNS-175" value="start_date" style="shape=partialRectangle;connectable=0;fillColor=none;top=0;left=0;bottom=0;right=0;align=left;spacingLeft=6;overflow=hidden;whiteSpace=wrap;html=1;fontSize=20;" vertex="1" parent="o1oWArqABhY-PskXTKNS-173">
          <mxGeometry x="30" width="210" height="57" as="geometry">
            <mxRectangle width="210" height="57" as="alternateBounds" />
          </mxGeometry>
        </mxCell>
        <mxCell id="o1oWArqABhY-PskXTKNS-117" value="&lt;font style=&quot;color: rgb(0, 0, 0);&quot;&gt;gold.fact_sales&lt;/font&gt;" style="shape=table;startSize=50;container=1;collapsible=1;childLayout=tableLayout;fixedRows=1;rowLines=0;fontStyle=1;align=center;resizeLast=1;html=1;rounded=1;fillColor=#dae8fc;strokeColor=#6c8ebf;gradientColor=#7ea6e0;fontSize=20;" vertex="1" parent="1">
          <mxGeometry x="-440" y="320" width="240" height="563" as="geometry" />
        </mxCell>
        <mxCell id="o1oWArqABhY-PskXTKNS-121" value="" style="shape=tableRow;horizontal=0;startSize=0;swimlaneHead=0;swimlaneBody=0;fillColor=none;collapsible=0;dropTarget=0;points=[[0,0.5],[1,0.5]];portConstraint=eastwest;top=0;left=0;right=0;bottom=0;fontSize=20;" vertex="1" parent="o1oWArqABhY-PskXTKNS-117">
          <mxGeometry y="50" width="240" height="57" as="geometry" />
        </mxCell>
        <mxCell id="o1oWArqABhY-PskXTKNS-122" value="" style="shape=partialRectangle;connectable=0;fillColor=none;top=0;left=0;bottom=0;right=0;editable=1;overflow=hidden;whiteSpace=wrap;html=1;fontSize=20;" vertex="1" parent="o1oWArqABhY-PskXTKNS-121">
          <mxGeometry width="50" height="57" as="geometry">
            <mxRectangle width="50" height="57" as="alternateBounds" />
          </mxGeometry>
        </mxCell>
        <mxCell id="o1oWArqABhY-PskXTKNS-123" value="&lt;b&gt;&lt;u&gt;order_number&lt;/u&gt;&lt;/b&gt;" style="shape=partialRectangle;connectable=0;fillColor=none;top=0;left=0;bottom=0;right=0;align=left;spacingLeft=6;overflow=hidden;whiteSpace=wrap;html=1;fontSize=20;" vertex="1" parent="o1oWArqABhY-PskXTKNS-121">
          <mxGeometry x="50" width="190" height="57" as="geometry">
            <mxRectangle width="190" height="57" as="alternateBounds" />
          </mxGeometry>
        </mxCell>
        <mxCell id="o1oWArqABhY-PskXTKNS-124" value="" style="shape=tableRow;horizontal=0;startSize=0;swimlaneHead=0;swimlaneBody=0;fillColor=none;collapsible=0;dropTarget=0;points=[[0,0.5],[1,0.5]];portConstraint=eastwest;top=0;left=0;right=0;bottom=0;fontSize=20;" vertex="1" parent="o1oWArqABhY-PskXTKNS-117">
          <mxGeometry y="107" width="240" height="57" as="geometry" />
        </mxCell>
        <mxCell id="o1oWArqABhY-PskXTKNS-125" value="FK1" style="shape=partialRectangle;connectable=0;fillColor=none;top=0;left=0;bottom=0;right=0;editable=1;overflow=hidden;whiteSpace=wrap;html=1;fontSize=20;" vertex="1" parent="o1oWArqABhY-PskXTKNS-124">
          <mxGeometry width="50" height="57" as="geometry">
            <mxRectangle width="50" height="57" as="alternateBounds" />
          </mxGeometry>
        </mxCell>
        <mxCell id="o1oWArqABhY-PskXTKNS-126" value="&lt;span style=&quot;font-weight: 700; text-decoration-line: underline;&quot;&gt;product_key&lt;/span&gt;" style="shape=partialRectangle;connectable=0;fillColor=none;top=0;left=0;bottom=0;right=0;align=left;spacingLeft=6;overflow=hidden;whiteSpace=wrap;html=1;fontSize=20;" vertex="1" parent="o1oWArqABhY-PskXTKNS-124">
          <mxGeometry x="50" width="190" height="57" as="geometry">
            <mxRectangle width="190" height="57" as="alternateBounds" />
          </mxGeometry>
        </mxCell>
        <mxCell id="o1oWArqABhY-PskXTKNS-127" value="" style="shape=tableRow;horizontal=0;startSize=0;swimlaneHead=0;swimlaneBody=0;fillColor=none;collapsible=0;dropTarget=0;points=[[0,0.5],[1,0.5]];portConstraint=eastwest;top=0;left=0;right=0;bottom=0;fontSize=20;" vertex="1" parent="o1oWArqABhY-PskXTKNS-117">
          <mxGeometry y="164" width="240" height="57" as="geometry" />
        </mxCell>
        <mxCell id="o1oWArqABhY-PskXTKNS-128" value="FK2" style="shape=partialRectangle;connectable=0;fillColor=none;top=0;left=0;bottom=0;right=0;editable=1;overflow=hidden;whiteSpace=wrap;html=1;fontSize=20;" vertex="1" parent="o1oWArqABhY-PskXTKNS-127">
          <mxGeometry width="50" height="57" as="geometry">
            <mxRectangle width="50" height="57" as="alternateBounds" />
          </mxGeometry>
        </mxCell>
        <mxCell id="o1oWArqABhY-PskXTKNS-129" value="&lt;span style=&quot;font-weight: 700; text-decoration-line: underline;&quot;&gt;customer_key&lt;/span&gt;" style="shape=partialRectangle;connectable=0;fillColor=none;top=0;left=0;bottom=0;right=0;align=left;spacingLeft=6;overflow=hidden;whiteSpace=wrap;html=1;fontSize=20;" vertex="1" parent="o1oWArqABhY-PskXTKNS-127">
          <mxGeometry x="50" width="190" height="57" as="geometry">
            <mxRectangle width="190" height="57" as="alternateBounds" />
          </mxGeometry>
        </mxCell>
        <mxCell id="o1oWArqABhY-PskXTKNS-130" value="" style="shape=tableRow;horizontal=0;startSize=0;swimlaneHead=0;swimlaneBody=0;fillColor=none;collapsible=0;dropTarget=0;points=[[0,0.5],[1,0.5]];portConstraint=eastwest;top=0;left=0;right=0;bottom=0;fontSize=20;" vertex="1" parent="o1oWArqABhY-PskXTKNS-117">
          <mxGeometry y="221" width="240" height="57" as="geometry" />
        </mxCell>
        <mxCell id="o1oWArqABhY-PskXTKNS-131" value="" style="shape=partialRectangle;connectable=0;fillColor=none;top=0;left=0;bottom=0;right=0;editable=1;overflow=hidden;whiteSpace=wrap;html=1;fontSize=20;" vertex="1" parent="o1oWArqABhY-PskXTKNS-130">
          <mxGeometry width="50" height="57" as="geometry">
            <mxRectangle width="50" height="57" as="alternateBounds" />
          </mxGeometry>
        </mxCell>
        <mxCell id="o1oWArqABhY-PskXTKNS-132" value="order_date" style="shape=partialRectangle;connectable=0;fillColor=none;top=0;left=0;bottom=0;right=0;align=left;spacingLeft=6;overflow=hidden;whiteSpace=wrap;html=1;fontSize=20;" vertex="1" parent="o1oWArqABhY-PskXTKNS-130">
          <mxGeometry x="50" width="190" height="57" as="geometry">
            <mxRectangle width="190" height="57" as="alternateBounds" />
          </mxGeometry>
        </mxCell>
        <mxCell id="o1oWArqABhY-PskXTKNS-133" value="" style="shape=tableRow;horizontal=0;startSize=0;swimlaneHead=0;swimlaneBody=0;fillColor=none;collapsible=0;dropTarget=0;points=[[0,0.5],[1,0.5]];portConstraint=eastwest;top=0;left=0;right=0;bottom=0;fontSize=20;" vertex="1" parent="o1oWArqABhY-PskXTKNS-117">
          <mxGeometry y="278" width="240" height="57" as="geometry" />
        </mxCell>
        <mxCell id="o1oWArqABhY-PskXTKNS-134" value="" style="shape=partialRectangle;connectable=0;fillColor=none;top=0;left=0;bottom=0;right=0;editable=1;overflow=hidden;whiteSpace=wrap;html=1;fontSize=20;" vertex="1" parent="o1oWArqABhY-PskXTKNS-133">
          <mxGeometry width="50" height="57" as="geometry">
            <mxRectangle width="50" height="57" as="alternateBounds" />
          </mxGeometry>
        </mxCell>
        <mxCell id="o1oWArqABhY-PskXTKNS-135" value="shipping_date" style="shape=partialRectangle;connectable=0;fillColor=none;top=0;left=0;bottom=0;right=0;align=left;spacingLeft=6;overflow=hidden;whiteSpace=wrap;html=1;fontSize=20;" vertex="1" parent="o1oWArqABhY-PskXTKNS-133">
          <mxGeometry x="50" width="190" height="57" as="geometry">
            <mxRectangle width="190" height="57" as="alternateBounds" />
          </mxGeometry>
        </mxCell>
        <mxCell id="o1oWArqABhY-PskXTKNS-136" value="" style="shape=tableRow;horizontal=0;startSize=0;swimlaneHead=0;swimlaneBody=0;fillColor=none;collapsible=0;dropTarget=0;points=[[0,0.5],[1,0.5]];portConstraint=eastwest;top=0;left=0;right=0;bottom=0;fontSize=20;" vertex="1" parent="o1oWArqABhY-PskXTKNS-117">
          <mxGeometry y="335" width="240" height="57" as="geometry" />
        </mxCell>
        <mxCell id="o1oWArqABhY-PskXTKNS-137" value="" style="shape=partialRectangle;connectable=0;fillColor=none;top=0;left=0;bottom=0;right=0;editable=1;overflow=hidden;whiteSpace=wrap;html=1;fontSize=20;" vertex="1" parent="o1oWArqABhY-PskXTKNS-136">
          <mxGeometry width="50" height="57" as="geometry">
            <mxRectangle width="50" height="57" as="alternateBounds" />
          </mxGeometry>
        </mxCell>
        <mxCell id="o1oWArqABhY-PskXTKNS-138" value="due_date" style="shape=partialRectangle;connectable=0;fillColor=none;top=0;left=0;bottom=0;right=0;align=left;spacingLeft=6;overflow=hidden;whiteSpace=wrap;html=1;fontSize=20;" vertex="1" parent="o1oWArqABhY-PskXTKNS-136">
          <mxGeometry x="50" width="190" height="57" as="geometry">
            <mxRectangle width="190" height="57" as="alternateBounds" />
          </mxGeometry>
        </mxCell>
        <mxCell id="o1oWArqABhY-PskXTKNS-139" value="" style="shape=tableRow;horizontal=0;startSize=0;swimlaneHead=0;swimlaneBody=0;fillColor=none;collapsible=0;dropTarget=0;points=[[0,0.5],[1,0.5]];portConstraint=eastwest;top=0;left=0;right=0;bottom=0;fontSize=20;" vertex="1" parent="o1oWArqABhY-PskXTKNS-117">
          <mxGeometry y="392" width="240" height="57" as="geometry" />
        </mxCell>
        <mxCell id="o1oWArqABhY-PskXTKNS-140" value="" style="shape=partialRectangle;connectable=0;fillColor=none;top=0;left=0;bottom=0;right=0;editable=1;overflow=hidden;whiteSpace=wrap;html=1;fontSize=20;" vertex="1" parent="o1oWArqABhY-PskXTKNS-139">
          <mxGeometry width="50" height="57" as="geometry">
            <mxRectangle width="50" height="57" as="alternateBounds" />
          </mxGeometry>
        </mxCell>
        <mxCell id="o1oWArqABhY-PskXTKNS-141" value="sales_amount" style="shape=partialRectangle;connectable=0;fillColor=none;top=0;left=0;bottom=0;right=0;align=left;spacingLeft=6;overflow=hidden;whiteSpace=wrap;html=1;fontSize=20;" vertex="1" parent="o1oWArqABhY-PskXTKNS-139">
          <mxGeometry x="50" width="190" height="57" as="geometry">
            <mxRectangle width="190" height="57" as="alternateBounds" />
          </mxGeometry>
        </mxCell>
        <mxCell id="o1oWArqABhY-PskXTKNS-142" value="" style="shape=tableRow;horizontal=0;startSize=0;swimlaneHead=0;swimlaneBody=0;fillColor=none;collapsible=0;dropTarget=0;points=[[0,0.5],[1,0.5]];portConstraint=eastwest;top=0;left=0;right=0;bottom=0;fontSize=20;" vertex="1" parent="o1oWArqABhY-PskXTKNS-117">
          <mxGeometry y="449" width="240" height="57" as="geometry" />
        </mxCell>
        <mxCell id="o1oWArqABhY-PskXTKNS-143" value="" style="shape=partialRectangle;connectable=0;fillColor=none;top=0;left=0;bottom=0;right=0;editable=1;overflow=hidden;whiteSpace=wrap;html=1;fontSize=20;" vertex="1" parent="o1oWArqABhY-PskXTKNS-142">
          <mxGeometry width="50" height="57" as="geometry">
            <mxRectangle width="50" height="57" as="alternateBounds" />
          </mxGeometry>
        </mxCell>
        <mxCell id="o1oWArqABhY-PskXTKNS-144" value="quantity" style="shape=partialRectangle;connectable=0;fillColor=none;top=0;left=0;bottom=0;right=0;align=left;spacingLeft=6;overflow=hidden;whiteSpace=wrap;html=1;fontSize=20;" vertex="1" parent="o1oWArqABhY-PskXTKNS-142">
          <mxGeometry x="50" width="190" height="57" as="geometry">
            <mxRectangle width="190" height="57" as="alternateBounds" />
          </mxGeometry>
        </mxCell>
        <mxCell id="o1oWArqABhY-PskXTKNS-176" value="" style="shape=tableRow;horizontal=0;startSize=0;swimlaneHead=0;swimlaneBody=0;fillColor=none;collapsible=0;dropTarget=0;points=[[0,0.5],[1,0.5]];portConstraint=eastwest;top=0;left=0;right=0;bottom=0;fontSize=20;" vertex="1" parent="o1oWArqABhY-PskXTKNS-117">
          <mxGeometry y="506" width="240" height="57" as="geometry" />
        </mxCell>
        <mxCell id="o1oWArqABhY-PskXTKNS-177" value="" style="shape=partialRectangle;connectable=0;fillColor=none;top=0;left=0;bottom=0;right=0;editable=1;overflow=hidden;whiteSpace=wrap;html=1;fontSize=20;" vertex="1" parent="o1oWArqABhY-PskXTKNS-176">
          <mxGeometry width="50" height="57" as="geometry">
            <mxRectangle width="50" height="57" as="alternateBounds" />
          </mxGeometry>
        </mxCell>
        <mxCell id="o1oWArqABhY-PskXTKNS-178" value="price" style="shape=partialRectangle;connectable=0;fillColor=none;top=0;left=0;bottom=0;right=0;align=left;spacingLeft=6;overflow=hidden;whiteSpace=wrap;html=1;fontSize=20;" vertex="1" parent="o1oWArqABhY-PskXTKNS-176">
          <mxGeometry x="50" width="190" height="57" as="geometry">
            <mxRectangle width="190" height="57" as="alternateBounds" />
          </mxGeometry>
        </mxCell>
        <mxCell id="o1oWArqABhY-PskXTKNS-179" value="" style="edgeStyle=entityRelationEdgeStyle;fontSize=20;html=1;endArrow=ERzeroToMany;startArrow=ERmandOne;rounded=0;entryX=0;entryY=0.5;entryDx=0;entryDy=0;strokeWidth=3;" edge="1" parent="1" source="o1oWArqABhY-PskXTKNS-2" target="o1oWArqABhY-PskXTKNS-127">
          <mxGeometry width="100" height="100" relative="1" as="geometry">
            <mxPoint x="-225" y="710" as="sourcePoint" />
            <mxPoint x="-125" y="610" as="targetPoint" />
          </mxGeometry>
        </mxCell>
        <mxCell id="o1oWArqABhY-PskXTKNS-180" value="" style="edgeStyle=entityRelationEdgeStyle;fontSize=20;html=1;endArrow=ERzeroToMany;startArrow=ERmandOne;rounded=0;exitX=0;exitY=0.5;exitDx=0;exitDy=0;entryX=1;entryY=0.175;entryDx=0;entryDy=0;entryPerimeter=0;strokeWidth=3;" edge="1" parent="1" source="o1oWArqABhY-PskXTKNS-90" target="o1oWArqABhY-PskXTKNS-124">
          <mxGeometry width="100" height="100" relative="1" as="geometry">
            <mxPoint x="-140" y="420" as="sourcePoint" />
            <mxPoint x="-160" y="540" as="targetPoint" />
            <Array as="points">
              <mxPoint x="-170" y="490" />
              <mxPoint x="-170" y="460" />
              <mxPoint x="-140" y="470" />
              <mxPoint x="-170" y="480" />
              <mxPoint x="-160" y="480" />
            </Array>
          </mxGeometry>
        </mxCell>
      </root>
    </mxGraphModel>
  </diagram>
</mxfile>
